<svg width="48" height="48" viewBox="0 0 48 48" fill="none" xmlns="http://www.w3.org/2000/svg">
<g filter="url(#filter0_d_16_4)">
<rect x="4" width="40" height="40" rx="10" fill="#FF6A66" fill-opacity="0.07"/>
<path d="M24.8058 11.0589L26.808 16.803L32.8852 17.0748C33.5249 17.1024 33.7853 17.9155 33.2706 18.3095L28.4269 21.9825L30.0477 27.842C30.2204 28.4641 29.5245 28.9559 28.9988 28.5897L24.0095 25.1205L18.9395 28.4708C18.4053 28.8245 17.7213 28.3164 17.9086 27.6985L19.6675 21.8789L14.8919 18.0922C14.3866 17.6962 14.6662 16.8794 15.3064 16.867L21.3884 16.7389L23.5259 11.0438C23.7429 10.4463 24.5929 10.4563 24.8058 11.0589Z" stroke="#FF6A66" stroke-width="1.2" stroke-miterlimit="10" stroke-linecap="round" stroke-linejoin="round"/>
</g>
<defs>
<filter id="filter0_d_16_4" x="0" y="0" width="48" height="48" filterUnits="userSpaceOnUse" color-interpolation-filters="sRGB">
<feFlood flood-opacity="0" result="BackgroundImageFix"/>
<feColorMatrix in="SourceAlpha" type="matrix" values="0 0 0 0 0 0 0 0 0 0 0 0 0 0 0 0 0 0 127 0" result="hardAlpha"/>
<feOffset dy="4"/>
<feGaussianBlur stdDeviation="2"/>
<feComposite in2="hardAlpha" operator="out"/>
<feColorMatrix type="matrix" values="0 0 0 0 0 0 0 0 0 0 0 0 0 0 0 0 0 0 0.25 0"/>
<feBlend mode="normal" in2="BackgroundImageFix" result="effect1_dropShadow_16_4"/>
<feBlend mode="normal" in="SourceGraphic" in2="effect1_dropShadow_16_4" result="shape"/>
</filter>
</defs>
</svg>
