<svg width="40" height="40" viewBox="0 0 40 40" fill="none" xmlns="http://www.w3.org/2000/svg">
<rect width="40" height="40" rx="10" fill="#FF6A66" fill-opacity="0.07"/>
<circle cx="20" cy="18" r="9" stroke="#FF6A66" stroke-width="1.2"/>
<path d="M21.052 15.902C21.052 16.6767 21.024 17.386 20.968 18.03C20.912 18.674 20.842 19.3227 20.758 19.976H19.554C19.4607 19.3227 19.386 18.674 19.33 18.03C19.274 17.3767 19.246 16.6673 19.246 15.902V13.298H21.052V15.902ZM21.262 22.076C21.262 22.4027 21.1547 22.6687 20.94 22.874C20.7253 23.0793 20.4593 23.182 20.142 23.182C19.834 23.182 19.568 23.0793 19.344 22.874C19.1293 22.6687 19.022 22.4027 19.022 22.076C19.022 21.7493 19.1293 21.4833 19.344 21.278C19.568 21.0633 19.834 20.956 20.142 20.956C20.4593 20.956 20.7253 21.0633 20.94 21.278C21.1547 21.4833 21.262 21.7493 21.262 22.076Z" fill="#FF6A66"/>
</svg>
